<svg width="37" height="43" viewBox="0 0 37 43" fill="none" xmlns="http://www.w3.org/2000/svg">
<path d="M35.4748 39.4167H33.9495V19.7083C33.9495 18.2828 33.4674 16.9156 32.6093 15.9076C31.7512 14.8996 30.5873 14.3333 29.3737 14.3333H26.3232C25.1096 14.3333 23.9457 14.8996 23.0876 15.9076C22.2294 16.9156 21.7473 18.2828 21.7473 19.7083V39.4167H18.6968V5.375C18.6968 3.94946 18.2147 2.58231 17.3566 1.5743C16.4984 0.566293 15.3346 0 14.121 0L11.0705 0C9.85687 0 8.69299 0.566293 7.83486 1.5743C6.97673 2.58231 6.49464 3.94946 6.49464 5.375V39.4167C5.68558 39.4167 4.90967 39.0391 4.33758 38.3671C3.76549 37.6951 3.4441 36.7837 3.4441 35.8333V1.79167C3.4441 1.31649 3.2834 0.86077 2.99735 0.524767C2.71131 0.188764 2.32335 0 1.91883 0C1.5143 0 1.12634 0.188764 0.840296 0.524767C0.554252 0.86077 0.393555 1.31649 0.393555 1.79167L0.393555 35.8333C0.393555 37.7341 1.03635 39.5569 2.18052 40.9009C3.3247 42.2449 4.87653 43 6.49464 43H35.4748C35.8793 43 36.2673 42.8112 36.5533 42.4752C36.8394 42.1392 37.0001 41.6835 37.0001 41.2083C37.0001 40.7332 36.8394 40.2774 36.5533 39.9414C36.2673 39.6054 35.8793 39.4167 35.4748 39.4167ZM9.54518 39.4167V5.375C9.54518 4.89982 9.70588 4.4441 9.99192 4.1081C10.278 3.7721 10.6659 3.58333 11.0705 3.58333H14.121C14.5255 3.58333 14.9135 3.7721 15.1995 4.1081C15.4856 4.4441 15.6463 4.89982 15.6463 5.375V39.4167H9.54518ZM24.7979 39.4167V19.7083C24.7979 19.2332 24.9586 18.7774 25.2446 18.4414C25.5307 18.1054 25.9186 17.9167 26.3232 17.9167H29.3737C29.7782 17.9167 30.1662 18.1054 30.4522 18.4414C30.7383 18.7774 30.899 19.2332 30.899 19.7083V39.4167H24.7979Z" fill="#605063"/>
</svg>
